<?xml version="1.0" ?><!DOCTYPE svg  PUBLIC '-//W3C//DTD SVG 1.1//EN'  'http://www.w3.org/Graphics/SVG/1.1/DTD/svg11.dtd'><svg height="100%" style="fill-rule:evenodd;clip-rule:evenodd;stroke-linejoin:round;stroke-miterlimit:1.41421;" version="1.1" viewBox="0 0 101 126" width="100%" xml:space="preserve" xmlns="http://www.w3.org/2000/svg" xmlns:serif="http://www.serif.com/" xmlns:xlink="http://www.w3.org/1999/xlink"><path d="M22.694,102.821l55.3,0c4.4,0 8,-3.6 8,-8l0,-55.9c0,-4.4 -3.6,-8 -8,-8l-8.6,0l0,-3.5c0,-2.2 -1.8,-4 -4,-4c-2.2,0 -4,1.8 -4,4l0,3.5l-22.1,0l0,-3.5c0,-2.2 -1.8,-4 -4,-4c-2.2,0 -4,1.8 -4,4l0,3.5l-8.6,0c-4.4,0 -8,3.6 -8,8l0,55.8c0,4.5 3.6,8.1 8,8.1Zm0,-8l0,-33.8l55.3,0l0,33.7l-55.3,0l0,0.1Zm8.6,-55.9l0,5.5c0,2.2 1.8,4 4,4c2.2,0 4,-1.8 4,-4l0,-5.5l22.2,0l0,5.5c0,2.2 1.8,4 4,4c2.2,0 4,-1.8 4,-4l0,-5.5l8.6,0l0,14.1l-55.4,0l0,-14.1l8.6,0Z" style="fill-rule:nonzero;"/><rect height="33.7" style="fill:#ffab0f;" width="55.3" x="22.694" y="61.021"/><path d="M78.094,53.021l0,-14.1l-8.6,0l0,5.5c0,2.2 -1.8,4 -4,4c-2.2,0 -4,-1.8 -4,-4l0,-5.5l-22.2,0l0,5.5c0,2.2 -1.8,4 -4,4c-2.2,0 -4,-1.8 -4,-4l0,-5.5l-8.6,0l0,14.1l55.4,0Z" style="fill:#dadada;"/><path d="M22.694,92.621l0,2.1l55.3,0l0,-5.1l-55.3,3Z" style="fill-opacity:0.199173;"/><path d="M22.694,51.723l0,1.298l55.4,0l0,-3.1l-55.4,1.802Z" style="fill-opacity:0.199173;"/></svg>