<?xml version="1.0" ?><!DOCTYPE svg  PUBLIC '-//W3C//DTD SVG 1.1//EN'  'http://www.w3.org/Graphics/SVG/1.1/DTD/svg11.dtd'><svg height="512px" style="enable-background:new 0 0 512 512;" version="1.1" viewBox="0 0 512 512" width="512px" xml:space="preserve" xmlns="http://www.w3.org/2000/svg" xmlns:xlink="http://www.w3.org/1999/xlink"><g id="_x31_64_x2C__Add_x2C__Contact_x2C__User_x2C__Twitter"><g><g><path d="M475.02,383.299v13.199H301v-13.199c0-39.58-17.42-75.08-45-99.27     c23.23-20.381,53.68-32.741,87.01-32.741C415.92,251.289,475.02,310.389,475.02,383.299z" style="fill:#40B3E2;"/></g><g><path d="M256,284.029c27.58,24.189,45,59.689,45,99.27v13.199h-90H36.98v-13.199     c0-36.461,14.78-69.461,38.66-93.35c23.89-23.891,56.9-38.661,93.35-38.661C202.32,251.289,232.77,263.648,256,284.029z" style="fill:#86DCFD;"/></g><g><circle cx="343.01" cy="181.979" r="68.48" style="fill:#EABD8C;"/></g><g><circle cx="168.99" cy="181.979" r="68.48" style="fill:#FFD8A8;"/></g></g></g><g id="Layer_1"/></svg>