<?xml version="1.0" ?><svg height="24" id="svg8" version="1.1" viewBox="0 0 24 24" width="24" xmlns="http://www.w3.org/2000/svg" xmlns:cc="http://creativecommons.org/ns#" xmlns:dc="http://purl.org/dc/elements/1.1/" xmlns:rdf="http://www.w3.org/1999/02/22-rdf-syntax-ns#" xmlns:svg="http://www.w3.org/2000/svg"><defs id="defs2"><rect height="7.0346723" id="rect2504" width="7.9207187" x="-1.1008456" y="289.81766"/></defs><g id="g2869" transform="translate(0.00925556)"><path d="m 18.902166,9.4538173 c 0,0.3334126 0,0.6668247 0,1.0002377 1.215368,0 2.430737,0 3.646105,0 0,-0.333413 0,-0.6668251 0,-1.0002377 -1.215368,0 -2.430737,0 -3.646105,0 z" id="path1597" style="color:#000000;font-style:normal;font-variant:normal;font-weight:normal;font-stretch:normal;font-size:medium;line-height:normal;font-family:sans-serif;font-variant-ligatures:normal;font-variant-position:normal;font-variant-caps:normal;font-variant-numeric:normal;font-variant-alternates:normal;font-variant-east-asian:normal;font-feature-settings:normal;font-variation-settings:normal;text-indent:0;text-align:start;text-decoration:none;text-decoration-line:none;text-decoration-style:solid;text-decoration-color:#000000;letter-spacing:normal;word-spacing:normal;text-transform:none;writing-mode:lr-tb;direction:ltr;text-orientation:mixed;dominant-baseline:auto;baseline-shift:baseline;text-anchor:start;white-space:normal;shape-padding:0;shape-margin:0;inline-size:0;clip-rule:nonzero;display:inline;overflow:visible;visibility:visible;isolation:auto;mix-blend-mode:normal;color-interpolation:sRGB;color-interpolation-filters:linearRGB;solid-color:#000000;solid-opacity:1;vector-effect:none;fill:#000000;fill-opacity:1;fill-rule:nonzero;stroke:none;stroke-width:1px;stroke-linecap:square;stroke-linejoin:miter;stroke-miterlimit:4;stroke-dasharray:none;stroke-dashoffset:0;stroke-opacity:1;color-rendering:auto;image-rendering:auto;shape-rendering:auto;text-rendering:auto;enable-background:accumulate;stop-color:#000000"/><path d="m 19.325651,11.787018 c -0.150802,0.297592 -0.301604,0.595183 -0.452406,0.892775 1.08501,0.547423 2.166531,1.101732 3.251541,1.649154 0.150802,-0.297592 0.301604,-0.595183 0.452406,-0.892775 C 21.492183,12.88875 20.41066,12.33444 19.325651,11.787018 Z" id="path1601" style="color:#000000;font-style:normal;font-variant:normal;font-weight:normal;font-stretch:normal;font-size:medium;line-height:normal;font-family:sans-serif;font-variant-ligatures:normal;font-variant-position:normal;font-variant-caps:normal;font-variant-numeric:normal;font-variant-alternates:normal;font-variant-east-asian:normal;font-feature-settings:normal;font-variation-settings:normal;text-indent:0;text-align:start;text-decoration:none;text-decoration-line:none;text-decoration-style:solid;text-decoration-color:#000000;letter-spacing:normal;word-spacing:normal;text-transform:none;writing-mode:lr-tb;direction:ltr;text-orientation:mixed;dominant-baseline:auto;baseline-shift:baseline;text-anchor:start;white-space:normal;shape-padding:0;shape-margin:0;inline-size:0;clip-rule:nonzero;display:inline;overflow:visible;visibility:visible;isolation:auto;mix-blend-mode:normal;color-interpolation:sRGB;color-interpolation-filters:linearRGB;solid-color:#000000;solid-opacity:1;vector-effect:none;fill:#000000;fill-opacity:1;fill-rule:nonzero;stroke:none;stroke-width:1px;stroke-linecap:square;stroke-linejoin:miter;stroke-miterlimit:4;stroke-dasharray:none;stroke-dashoffset:0;stroke-opacity:1;color-rendering:auto;image-rendering:auto;shape-rendering:auto;text-rendering:auto;enable-background:accumulate;stop-color:#000000"/><path d="m 22.124786,5.5789262 c -1.08501,0.547421 -2.166531,1.1017329 -3.251541,1.6491537 0.150802,0.2975916 0.301604,0.5951833 0.452406,0.8927749 C 20.408689,7.5688574 21.494154,7.0216321 22.577192,6.4696345 22.42639,6.1727317 22.275588,5.875829 22.124786,5.5789262 Z" id="path1605" style="color:#000000;font-style:normal;font-variant:normal;font-weight:normal;font-stretch:normal;font-size:medium;line-height:normal;font-family:sans-serif;font-variant-ligatures:normal;font-variant-position:normal;font-variant-caps:normal;font-variant-numeric:normal;font-variant-alternates:normal;font-variant-east-asian:normal;font-feature-settings:normal;font-variation-settings:normal;text-indent:0;text-align:start;text-decoration:none;text-decoration-line:none;text-decoration-style:solid;text-decoration-color:#000000;letter-spacing:normal;word-spacing:normal;text-transform:none;writing-mode:lr-tb;direction:ltr;text-orientation:mixed;dominant-baseline:auto;baseline-shift:baseline;text-anchor:start;white-space:normal;shape-padding:0;shape-margin:0;inline-size:0;clip-rule:nonzero;display:inline;overflow:visible;visibility:visible;isolation:auto;mix-blend-mode:normal;color-interpolation:sRGB;color-interpolation-filters:linearRGB;solid-color:#000000;solid-opacity:1;vector-effect:none;fill:#000000;fill-opacity:1;fill-rule:nonzero;stroke:none;stroke-width:1px;stroke-linecap:square;stroke-linejoin:miter;stroke-miterlimit:4;stroke-dasharray:none;stroke-dashoffset:0;stroke-opacity:1;color-rendering:auto;image-rendering:auto;shape-rendering:auto;text-rendering:auto;enable-background:accumulate;stop-color:#000000"/><path d="m 13.753906,45.109375 c -2.960651,0.959865 -5.922005,1.917568 -8.8828122,2.876953 -0.056311,-0.0091 -0.107435,-0.0332 -0.1660157,-0.0332 H 2.5117188 c -0.6043789,0 -1.1074219,0.503043 -1.1074219,1.107422 v 3.917969 c 0,0.604378 0.503043,1.10742 1.1074219,1.107422 h 0.3535156 l 2.390625,6.697265 H 8.7851562 L 6.6542969,54.423828 c 2.365928,0.49068 4.7318251,0.981507 7.0976561,1.472656 v 0.02148 c 0,1.064702 0.903868,1.914062 1.994139,1.914062 1.090271,0 1.994138,-0.84936 1.994138,-1.914062 V 45.132812 c 0,-1.064702 -0.903867,-1.916015 -1.99009,-1.916015 -1.086223,0 -1.982782,0.839103 -1.996234,1.892578 z m 1.992186,-0.892578 c 0.577131,0 0.994138,0.41266 0.994138,0.916015 v 10.785157 c 0,0.503355 -0.417007,0.914062 -0.994138,0.914062 -0.577131,0 -0.994139,-0.410707 -0.994139,-0.914062 V 45.132812 c 0,-0.503355 0.417008,-0.916015 0.994139,-0.916015 z m -1.994139,1.943359 V 54.875 C 11.109396,54.32672 8.4668249,53.77851 5.8242188,53.230469 v -4.501953 c 2.642577,-0.856123 5.2852822,-1.71185 7.9277342,-2.56836 z M 2.5117188,48.953125 h 2.1933593 c 0.067682,0 0.1074219,0.03974 0.1074219,0.107422 v 1.458984 H 2.4042969 v -1.458984 c 0,-0.06768 0.03974,-0.107422 0.1074219,-0.107422 z M 2.4042969,51.519531 H 4.8125 v 1.458985 c 0,0.06768 -0.03974,0.107422 -0.1074219,0.107422 H 2.5117188 c -0.067682,0 -0.1074219,-0.03974 -0.1074219,-0.107422 z m 2.4609375,2.533203 c 0.2180343,0.04523 0.4362614,0.08954 0.6542968,0.134766 l 1.875,5.595703 H 5.9609375 L 3.9257812,54.085938 h 0.7792969 c 0.056595,0 0.1056685,-0.02471 0.1601563,-0.0332 z" id="path1609" style="color:#000000;font-style:normal;font-variant:normal;font-weight:normal;font-stretch:normal;font-size:medium;line-height:normal;font-family:sans-serif;font-variant-ligatures:normal;font-variant-position:normal;font-variant-caps:normal;font-variant-numeric:normal;font-variant-alternates:normal;font-variant-east-asian:normal;font-feature-settings:normal;font-variation-settings:normal;text-indent:0;text-align:start;text-decoration:none;text-decoration-line:none;text-decoration-style:solid;text-decoration-color:#000000;letter-spacing:normal;word-spacing:normal;text-transform:none;writing-mode:lr-tb;direction:ltr;text-orientation:mixed;dominant-baseline:auto;baseline-shift:baseline;text-anchor:start;white-space:normal;shape-padding:0;shape-margin:0;inline-size:0;clip-rule:nonzero;display:inline;overflow:visible;visibility:visible;opacity:1;isolation:auto;mix-blend-mode:normal;color-interpolation:sRGB;color-interpolation-filters:linearRGB;solid-color:#000000;solid-opacity:1;vector-effect:none;fill:#000000;fill-opacity:1;fill-rule:nonzero;stroke:none;stroke-width:0.999993;stroke-linecap:square;stroke-linejoin:miter;stroke-miterlimit:4;stroke-dasharray:none;stroke-dashoffset:0;stroke-opacity:1;paint-order:stroke fill markers;color-rendering:auto;image-rendering:auto;shape-rendering:auto;text-rendering:auto;enable-background:accumulate;stop-color:#000000;stop-opacity:1" transform="translate(-2.5821961e-8,-40)"/></g></svg>