<?xml version="1.0" ?><svg viewBox="0 0 24 24" xmlns="http://www.w3.org/2000/svg"><title/><g id="connection"><path d="M21.69,18.61a4.23,4.23,0,0,0-.41-.33,2.75,2.75,0,1,0-4.56,0,3.78,3.78,0,0,0-1.52,3c0,1.41,2.07,1.7,3.8,1.7s3.8-.29,3.8-1.7A3.78,3.78,0,0,0,21.69,18.61Zm-3.44-1.86a.75.75,0,0,1,1.5,0A.75.75,0,0,1,18.25,16.75Zm-1,4.08a1.81,1.81,0,0,1,3.48,0A8.68,8.68,0,0,1,17.26,20.83Z"/><path d="M8.2,8.3C8.2,9.71,10.27,10,12,10s3.8-.29,3.8-1.7a3.73,3.73,0,0,0-1.52-3,2.75,2.75,0,1,0-4.56,0A3.78,3.78,0,0,0,8.2,8.3Zm2.06-.47a1.81,1.81,0,0,1,3.48,0A8.68,8.68,0,0,1,10.26,7.83Zm1-4.08a.75.75,0,0,1,1.5,0A.75.75,0,0,1,11.25,3.75Z"/><path d="M7.28,18.28a2.75,2.75,0,1,0-4.56,0,3.78,3.78,0,0,0-1.52,3C1.2,22.71,3.27,23,5,23s3.8-.29,3.8-1.7A3.73,3.73,0,0,0,7.28,18.28Zm-3-1.53a.75.75,0,0,1,1.5,0A.75.75,0,0,1,4.25,16.75Zm-1,4.08a1.81,1.81,0,0,1,3.48,0A8.68,8.68,0,0,1,3.26,20.83Z"/><path d="M13,13.59V12a1,1,0,0,0-2,0v1.59l-1.71,1.7a1,1,0,0,0,1.42,1.42L12,15.41C13.23,16.64,13.44,17,14,17a1,1,0,0,0,.71-1.71Z"/></g></svg>